<?xml version="1.0" encoding="utf-8"?>
<!-- Generator: Adobe Illustrator 27.0.0, SVG Export Plug-In . SVG Version: 6.00 Build 0)  -->
<svg version="1.1" id="Layer_1" xmlns="http://www.w3.org/2000/svg" xmlns:xlink="http://www.w3.org/1999/xlink" x="0px" y="0px"
	 viewBox="0 0 512 512" style="enable-background:new 0 0 512 512;" xml:space="preserve">
<style type="text/css">
	.st0{fill:#CDD4E8;}
	.st1{fill:#FAC7C8;}
	.st2{fill:#FCFAC4;}
	.st3{fill:#C2DDCE;}
	.st4{fill:#3953A3;}
	.st5{fill:#EC2024;}
	.st6{fill:#F5EA14;}
	.st7{fill:#0C763C;}
	.st8{fill:#D1CFD2;}
	.st9{fill:#C2C2CB;}
	.st10{fill:#D1CEC0;}
	.st11{fill:#241F59;}
	.st12{fill:#FFFFFF;}
	.st13{fill:#7F7C77;}
</style>
<g id="XMLID_1_">
	<polyline id="XMLID_3_" class="st0" points="114.74,192.01 83.74,192.01 83.74,234.52 114.74,234.52 114.74,192.01 	"/>
	<polyline id="XMLID_4_" class="st1" points="157.25,192.01 114.74,192.01 114.74,234.52 157.25,234.52 157.25,192.01 	"/>
	<path id="XMLID_5_" class="st2" d="M114.74,234.52L114.74,234.52h-31v17.25c-2.95-2.52-7.01-4.63-11.5-6.45v3.09l12.48,6.31
		l0.14,22.3h29.88L114.74,234.52"/>
	<polyline id="XMLID_6_" class="st3" points="157.25,234.52 157.25,234.52 114.74,234.52 114.74,277.16 157.25,277.16 
		157.25,234.52 	"/>
	<rect id="XMLID_7_" x="86.41" y="206.18" class="st4" width="28.34" height="28.34"/>
	<rect id="XMLID_8_" x="114.74" y="206.18" class="st5" width="28.34" height="28.34"/>
	<rect id="XMLID_9_" x="86.41" y="234.52" class="st6" width="28.34" height="28.34"/>
	<rect id="XMLID_10_" x="114.74" y="234.52" class="st7" width="28.34" height="28.34"/>
	<path id="XMLID_11_" class="st8" d="M46.29,159.47c-2.81,0-5.61,0.28-7.86,1.12v77.15c0,0,19.22,1.82,33.81,7.57v-10.8v-42.5h11.5
		v-22.58C83.74,169.43,62.28,159.47,46.29,159.47"/>
	<polyline id="XMLID_12_" class="st9" points="83.74,192.01 72.24,192.01 72.24,234.52 83.74,234.52 83.74,192.01 	"/>
	<path id="XMLID_13_" class="st10" d="M83.74,234.52h-11.5v10.8c4.49,1.82,8.56,3.93,11.5,6.45V234.52"/>
	<polyline id="XMLID_14_" class="st8" points="72.24,248.41 68.59,298.34 83.18,315.04 85.15,315.04 84.87,277.16 72.24,277.16 
		72.24,248.41 72.24,248.41 	"/>
	<polyline id="XMLID_15_" class="st10" points="72.24,248.41 72.24,277.16 84.87,277.16 84.73,254.72 72.24,248.41 	"/>
	<path id="XMLID_36_" class="st11" d="M85.01,322.05c-2.67,0-4.77,2.1-4.77,4.77c0,2.67,2.1,4.77,4.77,4.77
		c2.67,0,4.77-2.1,4.77-4.77C89.78,324.15,87.67,322.05,85.01,322.05z M218.13,149.79v-48.25H12.34v224.3
		c0,0,1.26,16.41,31.98,19.08c0,0,40.82,1.96,71.68,16.41c0,0,7.86-8.56,74.06-15.85c0,0,28.05-4.91,28.05-19.78v-6.31h-71.54
		v-54.57h71.54v-3.93h-71.54v-53.02h71.54v-3.93h-71.54v-54.43h71.54V149.79z M87.11,255.14l9.82-4.63l0.7,10.66H87.11V255.14z
		 M87.11,264.96h10.8l2.24,33.39c-1.54,1.54-6.87,7.43-12.91,16.27v-49.66H87.11z M26.79,149.79h55.55v16.83
		c-6.45-2.95-21.46-8.98-39-8.98c-1.96,0-3.79,0-5.75,0.28l-1.82,0.14v46.15h-8.84v-54.43H26.79z M72.66,261.17l0.7-10.66l8.84,4.21
		v6.45H72.66z M82.2,264.96v48.25c-5.75-8.14-10.66-13.47-12.06-14.87l2.24-33.39H82.2z M57.65,239.01
		c-7.72-1.4-14.87-2.1-18.1-2.38v-28.62H82.2v39.84C75.89,243.36,66.35,240.69,57.65,239.01z M39.56,204.22v-42.5
		c1.26,0,2.38-0.14,3.65-0.14c11.08,0,21.32,2.52,28.62,5.05c3.65,1.26,6.59,2.52,8.7,3.51c0.7,0.28,1.26,0.56,1.68,0.84v33.1H39.56
		V204.22z M26.79,261.17v-53.02h8.84v32.26l1.82,0.14c0,0,2.24,0.14,5.75,0.42c5.33,0.56,13.61,1.54,21.32,3.65
		c2.1,0.56,4.21,1.26,6.31,1.96l-0.98,14.45H26.79V261.17z M113.2,319.52H91.04c1.96,1.68,3.23,4.21,3.23,6.87
		c0,5.05-4.07,9.12-9.12,9.12c-5.05,0-9.12-4.07-9.12-9.12c0-0.84,0.14-1.68,0.28-2.38l0,0c0.28-2.95-0.28-5.33-0.28-5.33
		c-0.98-2.52-4.77-10.1-15.15-17.53c0,0,3.37-27.49,3.93-36.05h4.91l-2.24,34.37l0.42,0.42c0,0,1.96,1.96,5.05,5.61
		c2.52,3.09,5.89,7.29,9.26,12.48l0,0c0.98-0.28,1.96-0.56,2.95-0.56s1.96,0.14,2.81,0.42c3.51-5.19,6.73-9.4,9.26-12.48
		c3.09-3.65,5.05-5.61,5.05-5.61l0.42-0.42l-2.24-34.37h12.76L113.2,319.52L113.2,319.52z M113.2,261.17H100.3l-0.98-14.45
		c2.1-0.7,4.21-1.4,6.59-1.96s4.91-1.12,7.29-1.68V261.17z M113.2,239.01h-0.14c-9.26,1.82-19.64,4.63-25.95,9.96v-40.96h26.09
		V239.01z M113.2,204.22H87.11v-32.4c0.42-0.14,1.4-0.7,2.95-1.54c2.1-0.98,5.05-2.24,8.7-3.51c4.07-1.4,8.98-2.81,14.45-3.79
		V204.22z M113.2,159.05c-12.34,2.1-22.02,6.31-26.09,8.42v-17.53h26.09V159.05z M117.13,162.42c3.37-0.42,6.73-0.7,10.38-0.7
		c1.26,0,2.38,0,3.65,0.14v42.5h-14.03V162.42z M117.13,208.15h14.03v28.62c-2.67,0.14-7.86,0.7-14.03,1.68V208.15z M142.66,319.52
		h-25.53v-54.57h25.53V319.52z M142.66,261.17h-25.53v-18.8c3.93-0.7,7.43-1.12,10.24-1.4c3.51-0.28,5.75-0.42,5.75-0.42l1.82-0.14
		v-32.26h7.57v53.02H142.66z M142.66,204.22h-7.57v-46.15l-1.82-0.14c-1.96-0.14-3.93-0.28-5.75-0.28c-3.51,0-7.01,0.28-10.38,0.7
		v-8.56h25.53V204.22z"/>
	<path id="XMLID_37_" class="st12" d="M24.69,136.05l3.51-0.56c0.14,0.84,0.42,1.4,0.84,1.82c0.42,0.42,1.12,0.56,1.96,0.56
		c0.84,0,1.54-0.14,1.96-0.56c0.28-0.28,0.42-0.56,0.42-1.12c0-0.28-0.14-0.56-0.28-0.7c-0.14-0.14-0.56-0.42-1.12-0.56
		c-2.81-0.7-4.63-1.4-5.33-1.96c-0.98-0.84-1.54-1.96-1.54-3.37c0-1.26,0.42-2.38,1.4-3.23c0.84-0.84,2.24-1.26,4.21-1.26
		c1.82,0,3.09,0.28,4.07,0.98c0.84,0.7,1.54,1.68,1.82,2.95l-3.23,0.7c-0.14-0.56-0.42-0.98-0.84-1.4
		c-0.42-0.28-0.98-0.42-1.68-0.42c-0.98,0-1.54,0.14-1.96,0.42c-0.28,0.14-0.42,0.42-0.42,0.84c0,0.28,0.14,0.56,0.28,0.7
		c0.28,0.28,1.4,0.7,3.23,1.12c1.82,0.42,3.09,1.12,3.93,1.82c0.7,0.7,1.12,1.68,1.12,2.95c0,1.4-0.56,2.52-1.54,3.51
		c-0.98,0.98-2.52,1.54-4.49,1.54c-1.82,0-3.23-0.42-4.21-1.26C25.67,138.57,24.97,137.45,24.69,136.05z"/>
	<path id="XMLID_38_" class="st12" d="M43.48,119.49v7.57c1.12-1.54,2.52-2.24,4.07-2.24c0.84,0,1.54,0.14,2.1,0.56
		c0.7,0.28,1.12,0.84,1.4,1.26c0.28,0.56,0.56,1.12,0.7,1.68c0.14,0.7,0.14,1.68,0.14,2.95v8.84h-3.51v-8c0-1.54,0-2.52-0.14-2.95
		c-0.14-0.42-0.42-0.7-0.7-0.98c-0.28-0.28-0.7-0.42-1.26-0.42c-0.56,0-1.12,0.14-1.54,0.42c-0.42,0.28-0.84,0.84-0.98,1.4
		c-0.28,0.7-0.28,1.54-0.28,2.81v7.57h-3.51v-20.76h3.51V119.49z"/>
	<path id="XMLID_41_" class="st12" d="M58.07,129.87l-3.23-0.7c0.42-1.4,0.98-2.52,1.82-3.23c0.84-0.7,2.1-0.98,3.93-0.98
		c1.54,0,2.67,0.14,3.51,0.56c0.7,0.42,1.26,0.98,1.54,1.54c0.28,0.7,0.42,1.82,0.42,3.51v4.63c0,1.26,0,2.24,0.14,2.95
		c0.14,0.56,0.28,1.26,0.56,1.96h-3.51c-0.14-0.28-0.14-0.7-0.28-1.12c0-0.28-0.14-0.42-0.14-0.42c-0.56,0.7-1.26,1.12-1.96,1.54
		c-0.7,0.28-1.4,0.56-2.1,0.56c-1.4,0-2.38-0.42-3.23-1.26c-0.84-0.84-1.12-1.96-1.12-3.23c0-0.84,0.14-1.54,0.56-2.24
		c0.42-0.7,0.84-1.12,1.54-1.54c0.7-0.42,1.54-0.7,2.81-0.98c1.68-0.28,2.81-0.7,3.37-0.98v-0.42c0-0.7-0.14-1.26-0.56-1.68
		c-0.28-0.28-0.98-0.42-1.82-0.42c-0.56,0-1.12,0.14-1.4,0.42C58.63,128.61,58.35,129.17,58.07,129.87z M62.84,133.1
		c-0.42,0.14-1.12,0.42-2.1,0.56c-0.98,0.28-1.54,0.42-1.96,0.7c-0.42,0.42-0.7,0.84-0.7,1.4c0,0.56,0.14,0.98,0.56,1.4
		s0.84,0.56,1.4,0.56c0.56,0,1.26-0.28,1.82-0.7c0.42-0.42,0.7-0.84,0.84-1.26c0.14-0.28,0.14-0.98,0.14-1.96V133.1z"/>
	<path id="XMLID_42_" class="st12" d="M81.64,140.25h-3.51v-7.72c0-1.68-0.14-2.67-0.28-3.09c-0.14-0.42-0.42-0.84-0.7-1.12
		c-0.28-0.28-0.7-0.42-1.26-0.42s-1.12,0.14-1.68,0.56c-0.42,0.42-0.84,0.84-0.98,1.54c-0.14,0.56-0.28,1.82-0.28,3.51v6.73h-3.51
		v-15.01h3.23v2.24c1.12-1.68,2.67-2.52,4.35-2.52c0.7,0,1.4,0.14,2.1,0.42c0.7,0.28,1.12,0.7,1.4,1.26
		c0.28,0.42,0.56,0.98,0.7,1.68c0.14,0.56,0.14,1.54,0.14,2.67v9.26H81.64z"/>
	<path id="XMLID_43_" class="st12" d="M91.18,125.24v3.23h-2.38v6.03c0,1.26,0,1.96,0,2.1c0,0.14,0.14,0.42,0.28,0.56
		c0.14,0.14,0.42,0.14,0.56,0.14c0.28,0,0.84-0.14,1.4-0.42l0.28,3.09c-0.84,0.42-1.68,0.56-2.81,0.56c-0.56,0-1.26-0.14-1.68-0.42
		c-0.56-0.28-0.84-0.56-1.12-0.98c-0.28-0.42-0.42-0.84-0.42-1.54c-0.14-0.42-0.14-1.4-0.14-2.81v-6.59H83.6v-3.23h1.54v-2.95
		l3.51-2.38v5.33h2.52V125.24z"/>
	<path id="XMLID_46_" class="st12" d="M92.86,132.54c0-1.26,0.28-2.67,0.84-3.79c0.56-1.26,1.4-2.24,2.38-2.81
		c0.98-0.7,2.24-0.98,3.51-0.98c1.96,0,3.65,0.7,4.91,2.24s1.96,3.37,1.96,5.61c0,2.24-0.7,4.21-1.96,5.61
		c-1.26,1.54-2.95,2.24-4.91,2.24c-1.26,0-2.38-0.28-3.51-0.98c-1.12-0.56-1.96-1.54-2.52-2.67
		C93.14,135.77,92.86,134.22,92.86,132.54z M96.37,132.82c0,1.54,0.28,2.67,0.98,3.37c0.56,0.84,1.4,1.12,2.24,1.12
		s1.68-0.42,2.24-1.12c0.56-0.84,0.98-1.96,0.98-3.51c0-1.4-0.28-2.67-0.98-3.37c-0.56-0.84-1.4-1.12-2.24-1.12
		s-1.68,0.42-2.24,1.12C96.65,130.15,96.37,131.28,96.37,132.82z"/>
	<rect id="XMLID_47_" x="108.71" y="130.72" class="st12" width="6.87" height="3.93"/>
	<path id="XMLID_48_" class="st12" d="M117.27,125.24h3.23v2.1c1.12-1.54,2.52-2.38,4.07-2.38c0.84,0,1.54,0.14,2.24,0.56
		c0.56,0.42,1.12,0.98,1.54,1.82c0.56-0.84,1.26-1.4,1.82-1.82c0.7-0.42,1.4-0.56,2.1-0.56c0.98,0,1.82,0.28,2.52,0.7
		c0.7,0.42,1.12,1.12,1.54,1.96c0.28,0.7,0.42,1.68,0.42,3.09v9.54h-3.51v-8.56c0-1.54-0.14-2.38-0.42-2.95
		c-0.28-0.56-0.84-0.84-1.54-0.84c-0.42,0-0.98,0.14-1.4,0.56c-0.42,0.28-0.7,0.84-0.98,1.54c-0.14,0.7-0.28,1.68-0.28,3.09v7.15
		h-3.51v-8.28c0-1.4,0-2.38-0.14-2.81c-0.14-0.42-0.28-0.7-0.56-0.98c-0.28-0.14-0.56-0.28-1.12-0.28c-0.56,0-0.98,0.14-1.4,0.56
		c-0.42,0.28-0.7,0.84-0.98,1.4c-0.14,0.56-0.28,1.68-0.28,3.09v7.29h-3.51v-15.01H117.27z"/>
	<path id="XMLID_51_" class="st12" d="M142.8,129.87l-3.23-0.7c0.42-1.4,0.98-2.52,1.82-3.23c0.84-0.7,2.1-0.98,3.93-0.98
		c1.54,0,2.67,0.14,3.51,0.56c0.7,0.42,1.26,0.98,1.54,1.54c0.28,0.7,0.42,1.82,0.42,3.51v4.63c0,1.26,0,2.24,0.14,2.95
		c0.14,0.56,0.28,1.26,0.56,1.96h-3.51c-0.14-0.28-0.14-0.7-0.28-1.12c0-0.28-0.14-0.42-0.14-0.42c-0.56,0.7-1.26,1.12-1.96,1.54
		c-0.7,0.28-1.4,0.56-2.1,0.56c-1.4,0-2.38-0.42-3.23-1.26c-0.84-0.84-1.12-1.96-1.12-3.23c0-0.84,0.14-1.54,0.56-2.24
		c0.42-0.7,0.84-1.12,1.54-1.54c0.7-0.42,1.54-0.7,2.81-0.98c1.68-0.28,2.81-0.7,3.37-0.98v-0.42c0-0.7-0.14-1.26-0.56-1.68
		c-0.28-0.28-0.98-0.42-1.82-0.42c-0.56,0-1.12,0.14-1.4,0.42C143.22,128.61,142.94,129.17,142.8,129.87z M147.43,133.1
		c-0.42,0.14-1.12,0.42-2.1,0.56c-0.98,0.28-1.54,0.42-1.96,0.7c-0.42,0.42-0.7,0.84-0.7,1.4c0,0.56,0.14,0.98,0.56,1.4
		c0.42,0.42,0.84,0.56,1.4,0.56c0.56,0,1.26-0.28,1.82-0.7c0.42-0.42,0.7-0.84,0.84-1.26c0.14-0.28,0.14-0.98,0.14-1.96
		L147.43,133.1L147.43,133.1z"/>
	<path id="XMLID_52_" class="st12" d="M157.67,140.25h-3.51v-15.01h3.23v2.1c0.56-0.98,0.98-1.68,1.54-1.96
		c0.42-0.28,0.98-0.42,1.54-0.42c0.84,0,1.54,0.28,2.24,0.7l-1.12,3.51c-0.56-0.42-1.12-0.7-1.68-0.7c-0.42,0-0.84,0.14-1.26,0.42
		c-0.28,0.28-0.56,0.84-0.84,1.68c-0.14,0.84-0.28,2.52-0.28,5.05v4.63H157.67z"/>
	<path id="XMLID_55_" class="st12" d="M164.12,123.28v-3.65h3.51v3.65H164.12z M164.12,140.25v-15.01h3.51v15.01H164.12z"/>
	<path id="XMLID_58_" class="st12" d="M173.8,129.87l-3.23-0.7c0.42-1.4,0.98-2.52,1.82-3.23c0.84-0.7,2.1-0.98,3.93-0.98
		c1.54,0,2.67,0.14,3.51,0.56c0.7,0.42,1.26,0.98,1.54,1.54c0.28,0.7,0.42,1.82,0.42,3.51v4.63c0,1.26,0,2.24,0.14,2.95
		c0.14,0.56,0.28,1.26,0.56,1.96h-3.51c-0.14-0.28-0.14-0.7-0.28-1.12c0-0.28-0.14-0.42-0.14-0.42c-0.56,0.7-1.26,1.12-1.96,1.54
		c-0.7,0.28-1.4,0.56-2.1,0.56c-1.4,0-2.38-0.42-3.23-1.26c-0.84-0.84-1.12-1.96-1.12-3.23c0-0.84,0.14-1.54,0.56-2.24
		c0.42-0.7,0.84-1.12,1.54-1.54c0.7-0.42,1.54-0.7,2.81-0.98c1.68-0.28,2.81-0.7,3.37-0.98v-0.42c0-0.7-0.14-1.26-0.56-1.68
		c-0.28-0.28-0.98-0.42-1.82-0.42c-0.56,0-1.12,0.14-1.4,0.42C174.36,128.61,174.08,129.17,173.8,129.87z M178.43,133.1
		c-0.42,0.14-1.12,0.42-2.1,0.56c-0.98,0.28-1.54,0.42-1.96,0.7c-0.42,0.42-0.7,0.84-0.7,1.4c0,0.56,0.14,0.98,0.56,1.4
		c0.42,0.42,0.84,0.56,1.4,0.56c0.56,0,1.26-0.28,1.82-0.7c0.42-0.42,0.7-0.84,0.84-1.26c0.14-0.28,0.14-0.98,0.14-1.96
		L178.43,133.1L178.43,133.1z"/>
	<path id="XMLID_59_" class="st12" d="M185.02,125.24h3.23v2.1c1.12-1.54,2.52-2.38,4.07-2.38c0.84,0,1.54,0.14,2.24,0.56
		c0.56,0.42,1.12,0.98,1.54,1.82c0.56-0.84,1.26-1.4,1.82-1.82c0.7-0.42,1.4-0.56,2.1-0.56c0.98,0,1.82,0.28,2.52,0.7
		c0.7,0.42,1.12,1.12,1.54,1.96c0.28,0.7,0.42,1.68,0.42,3.09v9.54h-3.51v-8.56c0-1.54-0.14-2.38-0.42-2.95
		c-0.28-0.56-0.84-0.84-1.54-0.84c-0.42,0-0.98,0.14-1.4,0.56c-0.42,0.28-0.7,0.84-0.98,1.54c-0.14,0.7-0.28,1.68-0.28,3.09v7.15
		h-3.51v-8.28c0-1.4,0-2.38-0.14-2.81c-0.14-0.42-0.28-0.7-0.56-0.98c-0.28-0.14-0.56-0.28-1.12-0.28s-0.98,0.14-1.4,0.56
		c-0.42,0.28-0.7,0.84-0.98,1.4c-0.14,0.56-0.28,1.68-0.28,3.09v7.29h-3.51v-15.01H185.02z"/>
	<path id="XMLID_60_" class="st11" d="M190.35,161.44h6.17v22.02c0,3.79-0.56,6.87-1.54,9.12c-0.98,2.24-2.95,4.07-5.61,5.47
		c-2.81,1.4-6.31,2.1-10.8,2.1c-4.35,0-7.86-0.56-10.66-1.82c-2.81-1.26-4.77-2.95-5.89-5.33s-1.82-5.47-1.82-9.54v-22.02h6.17
		v21.88c0,3.37,0.42,5.75,1.12,7.29c0.7,1.54,1.96,2.81,3.79,3.65c1.82,0.84,4.07,1.26,6.59,1.26c4.49,0,7.72-0.84,9.54-2.52
		c1.96-1.68,2.81-4.91,2.81-9.68v-21.88H190.35z"/>
	<path id="XMLID_61_" class="st11" d="M205.92,199.45v-27.63h5.05v3.93c2.52-3.09,6.03-4.49,10.66-4.49c1.96,0,3.93,0.28,5.61,0.84
		c1.68,0.56,2.95,1.4,3.79,2.38c0.84,0.98,1.4,2.1,1.82,3.51c0.14,0.84,0.28,2.38,0.28,4.49v16.97h-5.61v-16.69
		c0-1.96-0.28-3.37-0.7-4.21c-0.42-0.98-1.26-1.68-2.38-2.24c-1.12-0.56-2.38-0.84-3.93-0.84c-2.38,0-4.49,0.56-6.31,1.82
		c-1.68,1.26-2.67,3.65-2.67,7.15v15.01L205.92,199.45L205.92,199.45z"/>
	<path id="XMLID_64_" class="st11" d="M241.83,166.77v-5.33h5.61v5.33H241.83z M241.83,199.45v-27.63h5.61v27.49h-5.61V199.45z"/>
	<path id="XMLID_65_" class="st11" d="M265.4,199.45l-12.76-27.49h6.03l7.15,16.55c0.84,1.82,1.54,3.65,2.1,5.61
		c0.56-1.4,1.26-3.23,2.1-5.19l7.43-16.83h5.89l-12.62,27.49h-5.33V199.45z"/>
	<path id="XMLID_68_" class="st11" d="M311.27,190.47l5.89,0.56c-0.98,2.81-2.67,5.05-5.19,6.59c-2.52,1.54-5.75,2.38-9.54,2.38
		c-4.91,0-8.7-1.26-11.64-3.79c-2.81-2.52-4.35-5.89-4.35-10.38c0-4.63,1.4-8.28,4.35-10.8c2.95-2.52,6.59-3.79,11.22-3.79
		c4.49,0,8.14,1.26,10.94,3.79s4.21,6.03,4.21,10.52c0,0.28,0,0.7,0,1.26h-24.97c0.14,3.09,1.26,5.33,3.09,7.01
		c1.82,1.54,4.21,2.38,7.01,2.38c2.1,0,3.79-0.42,5.33-1.4C309.16,193.98,310.43,192.58,311.27,190.47z M292.61,183.04h18.66
		c-0.28-2.38-0.98-4.07-2.1-5.19c-1.82-1.82-4.21-2.67-7.01-2.67c-2.67,0-4.77,0.7-6.59,2.1
		C293.87,178.69,292.89,180.65,292.61,183.04z"/>
	<path id="XMLID_69_" class="st11" d="M324.17,199.45v-27.63h5.05v4.21c1.26-1.96,2.52-3.23,3.65-3.93
		c1.12-0.56,2.24-0.98,3.65-0.98c1.96,0,3.79,0.56,5.89,1.54l-1.96,4.35c-1.4-0.7-2.81-0.98-4.21-0.98c-1.26,0-2.38,0.28-3.37,0.98
		c-0.98,0.56-1.68,1.4-2.1,2.52c-0.56,1.68-0.98,3.51-0.98,5.47v14.45L324.17,199.45L324.17,199.45z"/>
	<path id="XMLID_70_" class="st11" d="M343.39,191.17l5.61-0.7c0.28,1.82,1.12,3.23,2.67,4.21c1.4,0.98,3.51,1.54,6.03,1.54
		c2.67,0,4.49-0.42,5.75-1.26c1.26-0.84,1.82-1.96,1.82-3.09c0-1.12-0.56-1.82-1.68-2.52c-0.84-0.42-2.67-0.98-5.75-1.54
		c-4.21-0.84-7.01-1.54-8.7-2.24c-1.54-0.56-2.81-1.54-3.65-2.67c-0.84-1.12-1.26-2.38-1.26-3.65c0-1.26,0.28-2.38,0.98-3.37
		c0.7-0.98,1.54-1.96,2.81-2.67c0.84-0.56,2.1-0.98,3.65-1.4s3.09-0.56,4.91-0.56c2.67,0,4.91,0.28,6.87,0.98
		c1.96,0.56,3.51,1.4,4.35,2.52c0.98,1.12,1.54,2.52,1.96,4.21l-5.47,0.56c-0.28-1.4-0.98-2.52-2.24-3.37
		c-1.26-0.84-2.95-1.26-5.05-1.26c-2.67,0-4.49,0.42-5.61,1.12c-1.12,0.7-1.68,1.54-1.68,2.52c0,0.56,0.28,1.12,0.7,1.68
		c0.42,0.56,1.12,0.98,2.1,1.26c0.56,0.14,2.24,0.56,5.05,1.26c4.07,0.84,6.87,1.54,8.42,2.1c1.54,0.56,2.81,1.4,3.79,2.38
		c0.84,1.12,1.4,2.38,1.4,3.93c0,1.54-0.56,3.09-1.68,4.35c-1.12,1.4-2.67,2.38-4.77,3.23c-2.1,0.7-4.49,1.12-7.01,1.12
		c-4.35,0-7.72-0.7-9.96-2.24C345.49,196.36,344.09,194.12,343.39,191.17z"/>
	<path id="XMLID_73_" class="st11" d="M377.9,166.77v-5.33h5.61v5.33H377.9z M377.9,199.45v-27.63h5.61v27.49h-5.61V199.45z"/>
	<path id="XMLID_74_" class="st11" d="M404.55,195.24l0.84,4.07c-1.54,0.28-3.09,0.42-4.35,0.42c-2.1,0-3.65-0.28-4.77-0.84
		c-1.12-0.56-1.96-1.26-2.38-2.1c-0.42-0.84-0.7-2.67-0.7-5.47v-15.85h-4.21v-3.65h4.21v-6.87l5.61-2.81v9.68h5.75v3.65h-5.75v16.13
		c0,1.26,0.14,2.24,0.28,2.52c0.14,0.42,0.56,0.7,0.98,0.84c0.42,0.28,1.12,0.28,1.96,0.28
		C402.73,195.38,403.57,195.38,404.55,195.24z"/>
	<path id="XMLID_75_" class="st11" d="M409.88,209.97l-0.56-4.35c1.26,0.28,2.38,0.42,3.23,0.42c1.26,0,2.24-0.14,3.09-0.56
		c0.7-0.28,1.4-0.84,1.82-1.4c0.42-0.42,0.98-1.68,1.68-3.51c0.14-0.28,0.28-0.7,0.56-1.12l-12.62-27.63h6.17l7.01,15.99
		c0.84,1.96,1.68,4.21,2.38,6.31c0.7-2.1,1.4-4.21,2.38-6.31l7.15-15.99h5.61l-12.76,28.05c-1.4,3.09-2.38,5.05-3.23,6.31
		c-0.98,1.54-2.1,2.67-3.51,3.37c-1.26,0.7-2.81,1.12-4.63,1.12C412.41,210.53,411.28,210.39,409.88,209.97z"/>
	<path id="XMLID_78_" class="st11" d="M458.13,185.7c0-5.05,1.68-8.84,5.19-11.36c2.81-2.1,6.31-3.09,10.52-3.09
		c4.63,0,8.42,1.26,11.22,3.79c2.95,2.52,4.35,5.89,4.35,10.24c0,3.51-0.7,6.31-1.96,8.42c-1.26,1.96-3.23,3.65-5.61,4.77
		c-2.52,1.12-5.19,1.68-8.14,1.68c-4.63,0-8.42-1.26-11.36-3.65C459.54,193.84,458.13,190.33,458.13,185.7z M464.03,185.7
		c0,3.51,0.98,6.17,2.81,7.86c1.82,1.82,4.21,2.67,7.01,2.67s5.19-0.84,7.01-2.67c1.82-1.82,2.81-4.49,2.81-8
		c0-3.37-0.98-6.03-2.81-7.72c-1.82-1.82-4.21-2.67-7.01-2.67s-5.19,0.84-7.01,2.67C464.87,179.53,464.03,182.06,464.03,185.7z"/>
	<path id="XMLID_79_" class="st11" d="M497.41,199.45V175.6h-5.05v-3.79h5.05v-2.95c0-1.82,0.14-3.23,0.56-4.07
		c0.56-1.26,1.54-2.24,2.95-2.95c1.4-0.7,3.37-1.12,5.75-1.12c1.54,0,3.37,0.14,5.33,0.42l-0.84,4.07
		c-1.12-0.14-2.24-0.28-3.37-0.28c-1.68,0-2.95,0.28-3.65,0.84c-0.7,0.56-1.12,1.68-1.12,3.37v2.52h6.45v3.65h-6.45v23.85h-5.61
		V199.45z"/>
	<polygon id="XMLID_80_" class="st11" points="176.6,314.33 176.6,282.63 160.19,282.63 160.19,278.28 199.61,278.28 199.61,282.63 
		183.2,282.63 183.2,314.33 	"/>
	<path id="XMLID_83_" class="st11" d="M222.47,305.92l6.31,0.56c-0.98,2.67-2.81,4.77-5.47,6.17c-2.67,1.54-6.17,2.24-10.24,2.24
		c-5.19,0-9.4-1.12-12.48-3.51c-3.09-2.38-4.63-5.61-4.63-9.82c0-4.35,1.54-7.86,4.63-10.24c3.09-2.38,7.15-3.65,12.06-3.65
		c4.77,0,8.7,1.12,11.78,3.51c3.09,2.38,4.63,5.75,4.63,9.96c0,0.28,0,0.7,0,1.12h-26.79c0.28,2.81,1.4,5.05,3.37,6.59
		c1.96,1.54,4.49,2.24,7.57,2.24c2.24,0,4.21-0.42,5.75-1.26C220.23,309.14,221.49,307.88,222.47,305.92z M202.42,298.76h20.06
		c-0.28-2.24-0.98-3.79-2.24-4.91c-1.96-1.68-4.49-2.52-7.57-2.52c-2.81,0-5.19,0.7-7.01,2.1
		C203.68,294.7,202.7,296.52,202.42,298.76z"/>
	<path id="XMLID_84_" class="st11" d="M259.93,304.8l6.03,0.56c-0.7,2.95-2.38,5.33-5.05,7.01c-2.67,1.68-6.03,2.52-9.96,2.52
		c-4.91,0-8.84-1.12-11.92-3.51c-2.95-2.38-4.49-5.61-4.49-10.1c0-2.81,0.7-5.33,1.96-7.43c1.26-2.1,3.23-3.65,5.89-4.77
		c2.67-1.12,5.47-1.54,8.56-1.54c3.93,0,7.15,0.7,9.54,2.1c2.52,1.4,4.07,3.51,4.77,6.17l-5.89,0.7c-0.56-1.68-1.54-3.09-2.95-3.93
		c-1.4-0.84-3.23-1.26-5.19-1.26c-3.09,0-5.61,0.84-7.43,2.38c-1.96,1.54-2.95,4.07-2.95,7.57c0,3.51,0.98,6.03,2.81,7.57
		s4.21,2.38,7.29,2.38c2.38,0,4.35-0.56,6.03-1.54C258.38,308.58,259.37,307.04,259.93,304.8z"/>
	<path id="XMLID_85_" class="st11" d="M271.01,314.33v-36.05h6.03v12.91c2.81-2.38,6.45-3.65,10.8-3.65c2.67,0,4.91,0.42,6.87,1.12
		c1.96,0.7,3.37,1.82,4.21,3.23c0.84,1.4,1.26,3.23,1.26,5.89v16.55h-6.03v-16.55c0-2.24-0.7-3.79-1.96-4.77
		c-1.26-0.98-3.23-1.54-5.61-1.54c-1.82,0-3.51,0.28-5.05,0.98c-1.54,0.7-2.67,1.54-3.37,2.81c-0.7,1.12-0.98,2.81-0.98,4.77v14.31
		H271.01z"/>
	<path id="XMLID_86_" class="st11" d="M309.58,314.33v-26.09h5.47v3.65c2.67-2.81,6.45-4.35,11.5-4.35c2.1,0,4.21,0.28,6.03,0.84
		c1.82,0.56,3.23,1.26,4.07,2.24s1.54,1.96,1.96,3.23c0.28,0.84,0.28,2.24,0.28,4.35v15.99h-6.03v-15.85c0-1.82-0.28-3.09-0.7-4.07
		c-0.42-0.84-1.26-1.54-2.52-2.1c-1.26-0.56-2.67-0.84-4.21-0.84c-2.67,0-4.77,0.56-6.73,1.82c-1.82,1.26-2.81,3.51-2.81,6.87v14.31
		H309.58z"/>
	<path id="XMLID_89_" class="st11" d="M345.92,301.29c0-4.77,1.82-8.42,5.61-10.8c3.09-1.96,6.87-2.95,11.36-2.95
		c4.91,0,8.98,1.12,12.06,3.51c3.09,2.38,4.77,5.61,4.77,9.68c0,3.37-0.7,6.03-2.1,7.86c-1.4,1.96-3.37,3.37-6.03,4.49
		c-2.67,1.12-5.61,1.54-8.7,1.54c-5.05,0-9.12-1.12-12.2-3.51C347.46,309.14,345.92,305.78,345.92,301.29z M352.23,301.29
		c0,3.37,0.98,5.89,2.95,7.43c1.96,1.68,4.49,2.52,7.57,2.52c3.09,0,5.47-0.84,7.57-2.52c1.96-1.68,2.95-4.21,2.95-7.57
		c0-3.23-0.98-5.61-3.09-7.29c-1.96-1.68-4.49-2.52-7.57-2.52c-3.09,0-5.61,0.84-7.57,2.52
		C353.21,295.54,352.23,297.92,352.23,301.29z"/>
	<rect id="XMLID_90_" x="386.6" y="278.28" class="st11" width="6.03" height="36.05"/>
	<path id="XMLID_93_" class="st11" d="M399.92,301.29c0-4.77,1.82-8.42,5.61-10.8c3.09-1.96,6.87-2.95,11.36-2.95
		c4.91,0,8.98,1.12,12.06,3.51c3.09,2.38,4.77,5.61,4.77,9.68c0,3.37-0.7,6.03-2.1,7.86c-1.4,1.96-3.37,3.37-6.03,4.49
		c-2.67,1.12-5.61,1.54-8.7,1.54c-5.05,0-9.12-1.12-12.2-3.51C401.46,309.14,399.92,305.78,399.92,301.29z M406.09,301.29
		c0,3.37,0.98,5.89,2.95,7.43c1.96,1.68,4.49,2.52,7.57,2.52c3.09,0,5.61-0.84,7.57-2.52c1.96-1.68,2.95-4.21,2.95-7.57
		c0-3.23-0.98-5.61-3.09-7.29c-1.96-1.68-4.49-2.52-7.57-2.52c-3.09,0-5.61,0.84-7.57,2.52
		C407.08,295.54,406.09,297.92,406.09,301.29z"/>
	<path id="XMLID_96_" class="st11" d="M439.62,316.58l5.89,0.7c0.28,1.26,0.98,2.24,2.1,2.95c1.54,0.84,3.51,1.26,6.17,1.26
		c2.81,0,5.05-0.42,6.59-1.26c1.54-0.84,2.52-1.96,3.09-3.51c0.28-0.84,0.42-2.81,0.42-5.61c-2.67,2.24-6.03,3.37-9.96,3.37
		c-4.91,0-8.84-1.26-11.5-3.93c-2.67-2.52-4.07-5.75-4.07-9.26c0-2.52,0.56-4.77,1.82-6.87c1.26-2.1,3.09-3.79,5.33-4.91
		c2.38-1.12,5.19-1.68,8.28-1.68c4.21,0,7.72,1.26,10.52,3.79v-3.37h5.61v22.58c0,4.07-0.56,6.87-1.68,8.7
		c-1.12,1.68-2.95,3.09-5.47,4.07c-2.52,0.98-5.47,1.54-9.12,1.54c-4.35,0-7.72-0.7-10.38-2.1
		C440.74,321.49,439.48,319.38,439.62,316.58z M444.67,300.87c0,3.37,0.98,5.89,2.81,7.43c1.82,1.54,4.21,2.38,7.01,2.38
		s5.19-0.84,7.01-2.38c1.96-1.54,2.81-4.07,2.81-7.29c0-3.23-0.98-5.61-2.95-7.15c-1.96-1.68-4.35-2.38-7.01-2.38
		s-5.05,0.84-6.87,2.38C445.51,295.4,444.67,297.64,444.67,300.87z"/>
	<path id="XMLID_97_" class="st11" d="M479.04,324.43l-0.7-4.21c1.26,0.28,2.52,0.42,3.51,0.42c1.4,0,2.38-0.14,3.23-0.56
		c0.84-0.28,1.54-0.84,1.96-1.4c0.42-0.42,0.98-1.54,1.82-3.23c0.14-0.28,0.28-0.56,0.56-1.12l-13.61-26.09h6.59l7.43,15.15
		c0.98,1.96,1.82,3.93,2.67,6.03c0.7-1.96,1.54-4.07,2.52-5.89l7.72-15.15h6.03l-13.61,26.51c-1.4,2.81-2.67,4.77-3.37,5.89
		c-1.12,1.4-2.38,2.52-3.79,3.23c-1.4,0.7-3.09,0.98-5.05,0.98C481.7,324.99,480.44,324.71,479.04,324.43z"/>
	<path id="XMLID_98_" class="st13" d="M203.12,246.3c0.42,0.7,0.7,1.4,0.7,1.82c0,2.24-2.67,4.35-7.86,6.45
		c-5.19,2.1-10.66,3.23-16.13,3.23c-6.03,0-10.8-1.26-14.31-3.79c-3.51-2.52-5.19-6.03-5.19-10.38c0-7.01,3.23-13.05,9.54-17.96
		c6.31-5.05,13.89-7.57,22.72-7.57c3.65,0,6.59,0.42,9.12,1.4c2.38,0.98,3.65,2.1,3.65,3.37s-1.12,2.52-3.23,3.93
		c-2.81-4.07-6.87-6.17-12.06-6.17c-5.75,0-10.66,2.1-15.01,6.45c-4.21,4.35-6.45,9.26-6.45,15.01c0,3.65,1.26,6.59,3.79,8.7
		c2.52,2.1,6.03,3.23,10.38,3.23C190.07,254.02,196.94,251.49,203.12,246.3z"/>
	<path id="XMLID_99_" class="st13" d="M221.35,256.68c-1.54,0.56-2.95,0.84-3.93,0.84c-2.38,0-3.65-0.7-3.65-2.24
		c0-0.84,0.42-2.81,1.26-5.89l1.82-6.31c1.12-3.79,1.68-6.59,1.68-8.42c0-0.98-0.42-1.82-1.12-2.52c2.52-0.56,4.49-0.98,6.03-0.98
		c1.68,0,2.52,0.7,2.52,2.24c0,0.98-0.56,3.37-1.82,7.43l-1.96,7.43c4.49-6.31,8.98-11.08,13.47-14.59
		c4.49-3.51,8.56-5.19,12.2-5.19c1.26,0,2.38,0.28,3.37,0.84c0.98,0.56,1.4,1.12,1.4,1.96c0,1.26-1.82,2.81-5.33,4.77
		c-0.84-1.4-2.1-1.96-3.79-1.96c-2.95,0-6.87,2.24-11.5,6.87c-2.81,2.81-5.33,5.89-7.43,8.84c-2.1,3.09-3.23,5.19-3.23,6.45
		L221.35,256.68z"/>
	<path id="XMLID_102_" class="st13" d="M259.09,246.3c0,5.05,2.95,7.43,8.7,7.43c5.05,0,10.66-1.68,16.69-5.19
		c6.17-3.51,11.64-8.14,16.55-13.75l2.95,1.26c-4.63,6.31-10.66,11.36-17.96,15.57c-7.43,4.07-14.45,6.17-21.04,6.17
		c-4.21,0-7.57-0.98-10.1-2.95c-2.52-1.96-3.65-4.63-3.65-8.14c0-4.91,2.24-9.12,6.73-12.76c4.49-3.51,9.82-5.33,16.13-5.33
		c3.09,0,5.47,0.56,7.29,1.68c1.82,1.12,2.81,2.52,2.81,4.49c0,3.09-2.52,5.75-7.57,8.14C271.57,245.04,265.68,246.3,259.09,246.3z
		 M259.37,243.78c4.91-0.14,9.12-1.26,12.62-3.09c3.51-1.82,5.33-4.07,5.33-6.45c0-2.24-1.4-3.23-4.07-3.23
		c-3.23,0-6.17,1.26-8.84,3.79C261.75,237.18,260.07,240.27,259.37,243.78z"/>
	<path id="XMLID_105_" class="st13" d="M324.59,241.25c-3.09,4.49-6.73,8.42-11.22,11.5c-4.49,3.23-8.28,4.77-11.5,4.77
		c-2.52,0-4.49-0.84-6.03-2.38c-1.54-1.68-2.24-3.79-2.24-6.45c0-5.33,2.24-10.1,6.73-14.17c4.49-4.07,9.68-6.03,15.57-6.03
		c3.51,0,7.43,0.84,11.64,2.38c0.56-1.54,3.09-2.38,7.43-2.38c0.28,0,0.7,0,1.4,0c-1.4,1.54-2.38,3.51-3.09,6.03l-0.56,2.24
		c-0.7,2.38-0.98,5.19-0.98,8.56c0,3.79,1.26,5.61,3.65,5.61c2.52,0,6.03-1.54,10.38-4.63c4.35-3.09,8.7-7.01,13.05-11.78l2.81,1.4
		c-4.35,5.61-9.4,10.38-15.01,14.17c-5.61,3.79-10.38,5.61-14.45,5.61c-5.05,0-7.57-3.09-7.57-9.26
		C324.45,245.18,324.45,243.36,324.59,241.25z M326.28,235.08c-4.91-2.38-9.12-3.51-12.34-3.51c-3.51,0-6.59,1.54-9.26,4.77
		c-2.67,3.09-3.93,6.87-3.93,11.22c0,3.51,1.54,5.19,4.63,5.19c3.37,0,9.82-5.33,19.36-16.13
		C325.01,236.48,325.44,235.92,326.28,235.08z"/>
	<path id="XMLID_106_" class="st13" d="M378.46,246.72c0.7,0.84,0.98,1.54,0.98,2.24c0,1.68-1.96,3.51-5.89,5.61
		c-3.93,1.96-7.43,3.09-10.66,3.09c-2.81,0-5.19-0.98-6.87-2.81c-1.82-1.82-2.67-4.21-2.67-7.01c0-3.23,1.12-7.72,3.51-13.75
		l1.68-4.35h-6.03c-2.52,0-4.49,0.28-6.03,0.7c1.4-1.82,2.52-2.95,3.37-3.37c0.84-0.42,2.38-0.7,4.63-0.7h5.33l0.7-1.82
		c1.12-2.67,2.38-4.49,3.93-5.47c1.54-0.98,3.79-1.54,6.73-1.54c0.42,0,0.98,0,1.68,0c-1.82,1.68-3.79,4.63-5.75,8.7h18.66
		c3.23,0,5.75-0.28,7.43-0.98c-0.56,1.68-1.4,2.95-2.38,3.37c-0.98,0.56-2.81,0.84-5.47,0.84h-19.92c-0.28,0.56-0.42,0.98-0.56,1.26
		c-2.81,7.01-4.21,12.34-4.21,15.99c0,3.93,1.96,5.89,5.89,5.89c1.96,0,4.21-0.56,6.59-1.82
		C375.65,249.67,377.34,248.26,378.46,246.72z"/>
	<path id="XMLID_109_" class="st13" d="M425.31,235.92c-5.33,6.73-10.66,12.06-16.13,15.85c-5.47,3.79-10.38,5.75-14.73,5.75
		c-2.67,0-4.77-0.56-6.31-1.82c-1.68-1.26-2.38-2.95-2.38-4.91c0-0.7,0.28-1.96,0.7-3.65l0.84-2.81c1.12-4.07,1.68-6.87,1.68-8.56
		c0-0.98-0.42-1.82-1.26-2.38c3.09-0.56,5.05-0.7,5.75-0.7c1.68,0,2.67,0.84,2.67,2.67c0,1.26-0.28,3.23-0.98,5.61l-1.4,5.05
		c-0.7,2.38-0.98,3.93-0.98,4.63c0,2.1,1.26,3.23,3.65,3.23c2.95,0,6.87-1.82,11.78-5.33c4.91-3.65,9.68-8.14,14.31-13.61
		L425.31,235.92z M393.89,223.02h0.56c1.54,0,3.79-0.56,6.87-1.68c2.95-1.12,5.33-2.24,7.01-3.37c-0.98,2.38-2.95,4.35-5.47,5.89
		c-4.07,2.38-6.73,3.65-8.14,3.65c-0.98,0-1.4-0.42-1.4-1.26C393.05,225.12,393.33,224,393.89,223.02z"/>
	<path id="XMLID_110_" class="st13" d="M425.73,257.52c0.56-1.54,0.84-2.81,0.84-3.93c0-4.21-1.26-8.84-3.65-14.03
		c-2.52-5.05-5.33-8.98-8.7-11.5c2.1-0.7,3.93-1.12,5.47-1.12c2.52,0,5.19,2.52,7.86,7.43s4.49,10.94,5.75,17.81
		c4.07-3.79,7.57-7.72,10.24-11.78s4.21-7.43,4.63-10.38c3.51,0.98,5.33,2.24,5.33,3.51c0,1.12-1.68,3.79-5.05,7.86
		c-3.37,4.07-7.01,8-10.94,11.64c-1.96,1.82-3.51,2.95-4.91,3.37C430.92,257.1,428.68,257.38,425.73,257.52z"/>
	<path id="XMLID_113_" class="st13" d="M463.47,246.3c0,5.05,2.95,7.43,8.7,7.43c5.05,0,10.66-1.68,16.69-5.19
		c6.17-3.51,11.64-8.14,16.55-13.75l2.95,1.26c-4.63,6.31-10.66,11.36-17.96,15.57c-7.43,4.07-14.45,6.17-21.04,6.17
		c-4.21,0-7.57-0.98-10.1-2.95c-2.52-1.96-3.65-4.63-3.65-8.14c0-4.91,2.24-9.12,6.73-12.76c4.49-3.51,9.82-5.33,16.13-5.33
		c3.09,0,5.47,0.56,7.29,1.68c1.82,1.12,2.81,2.52,2.81,4.49c0,3.09-2.52,5.75-7.57,8.14C475.95,245.04,470.06,246.3,463.47,246.3z
		 M463.75,243.78c4.91-0.14,9.12-1.26,12.62-3.09c3.51-1.82,5.33-4.07,5.33-6.45c0-2.24-1.4-3.23-4.07-3.23
		c-3.23,0-6.17,1.26-8.84,3.79C466.13,237.18,464.45,240.27,463.75,243.78z"/>
	<path id="XMLID_114_" class="st11" d="M189.51,387.7c34.23-3.93,43.06-12.34,43.06-12.34c-17.96-3.51-24.55-6.59-24.55-6.59
		c12.34-12.34,14.03-23.29,14.03-23.29c-19.78,16.27-56.67,17.96-56.67,17.96v5.33c-24.97,0-46.01,8.14-49.1,9.54
		c-3.23-1.26-24.13-9.54-49.1-9.54v-5.33c0,0-36.89-1.82-56.67-17.96c0,0,1.82,10.94,14.03,23.29c0,0-6.59,3.09-24.55,6.59
		c0,0,8.84,8.28,43.06,12.34l-2.24,6.17c0,0,55.27,5.47,75.19,16.27v0.42l0.28-0.14l0.28,0.14v-0.42
		c19.92-10.66,75.19-16.27,75.19-16.27L189.51,387.7z"/>
	<path id="XMLID_117_" class="st12" d="M74.91,388.54l2.52,1.54c-0.7,0.84-1.54,1.4-2.52,1.54c-0.98,0.28-1.96,0.14-3.09-0.42
		c-1.82-0.7-2.81-1.82-3.23-3.37c-0.28-1.12-0.14-2.52,0.42-3.93c0.7-1.68,1.68-2.81,2.95-3.37c1.26-0.56,2.52-0.56,3.93-0.14
		c1.54,0.56,2.52,1.54,2.95,2.95c0.42,1.4,0.28,3.09-0.56,5.05l-6.73-2.67c-0.28,0.84-0.28,1.54-0.14,2.1
		c0.28,0.56,0.7,0.98,1.26,1.26c0.42,0.14,0.84,0.14,1.26,0.14C74.2,389.24,74.49,388.96,74.91,388.54z M76.17,385.87
		c0.28-0.84,0.28-1.4,0.14-1.96c-0.28-0.56-0.56-0.98-1.12-1.12c-0.56-0.28-1.12-0.28-1.68,0c-0.56,0.28-0.98,0.84-1.26,1.54
		L76.17,385.87z"/>
	<path id="XMLID_118_" class="st12" d="M78.27,390.22l2.95,0.14c0,0.56,0.14,0.98,0.42,1.4c0.28,0.42,0.84,0.56,1.4,0.7
		c0.7,0.14,1.26,0.14,1.68,0c0.28-0.14,0.42-0.42,0.56-0.7c0-0.28,0-0.42-0.14-0.56s-0.42-0.42-0.84-0.56
		c-2.24-0.98-3.51-1.68-4.07-2.24c-0.7-0.7-0.98-1.68-0.84-2.67c0.14-0.98,0.7-1.68,1.54-2.1c0.84-0.42,2.1-0.56,3.65-0.28
		c1.4,0.28,2.52,0.7,3.09,1.4c0.56,0.56,0.98,1.4,0.98,2.38h-2.81c0-0.42-0.14-0.84-0.42-1.12c-0.28-0.28-0.7-0.56-1.26-0.56
		c-0.7-0.14-1.26-0.14-1.68,0c-0.28,0.14-0.42,0.28-0.42,0.56c0,0.14,0,0.42,0.14,0.56c0.28,0.28,0.98,0.7,2.52,1.4
		c1.4,0.7,2.38,1.26,2.95,1.96c0.42,0.56,0.7,1.4,0.42,2.24c-0.14,0.98-0.84,1.68-1.68,2.24c-0.98,0.56-2.24,0.7-3.79,0.28
		c-1.4-0.28-2.52-0.84-3.23-1.54C78.69,392.19,78.27,391.2,78.27,390.22z"/>
	<path id="XMLID_119_" class="st12" d="M96.37,385.17l-0.28,2.24l-1.96-0.14l-0.42,4.35c-0.14,0.84-0.14,1.4-0.14,1.54l0.28,0.42
		c0.14,0.14,0.28,0.14,0.42,0.14c0.28,0,0.7,0,1.12-0.14v2.24c-0.7,0.28-1.4,0.28-2.38,0.14c-0.56,0-0.98-0.14-1.4-0.42
		c-0.42-0.28-0.7-0.42-0.84-0.7c-0.14-0.28-0.28-0.7-0.28-1.12c0-0.28,0-0.98,0.14-2.1l0.42-4.77l-1.26-0.14l0.28-2.24l1.26,0.14
		l0.28-2.1l3.09-1.4l-0.42,3.79L96.37,385.17z"/>
	<path id="XMLID_122_" class="st12" d="M107.17,396.39h-2.67v-1.54c-0.42,0.56-0.98,1.12-1.54,1.4c-0.56,0.28-1.26,0.42-1.82,0.42
		c-1.26,0-2.38-0.56-3.23-1.54c-0.84-0.98-1.26-2.38-1.26-4.21s0.56-3.23,1.4-4.21s1.96-1.4,3.37-1.4c1.26,0,2.24,0.56,3.09,1.54
		l0.14-5.47h2.95L107.17,396.39z M99.59,390.64c0,1.12,0.14,1.96,0.42,2.52c0.42,0.7,1.12,1.12,1.96,1.12c0.7,0,1.26-0.28,1.68-0.84
		c0.42-0.56,0.7-1.4,0.7-2.52c0-1.26-0.14-2.1-0.56-2.67c-0.42-0.56-0.98-0.84-1.68-0.84s-1.26,0.28-1.68,0.84
		C99.88,388.68,99.59,389.52,99.59,390.64z"/>
	<path id="XMLID_123_" class="st12" d="M140.13,393.17l0.42,2.24l-8.7,1.68c-0.14-0.84,0-1.82,0.42-2.67
		c0.28-0.84,0.98-2.1,2.24-3.65c0.98-1.26,1.4-2.1,1.68-2.52c0.28-0.56,0.28-1.12,0.28-1.68c-0.14-0.56-0.28-0.98-0.7-1.12
		c-0.42-0.28-0.84-0.28-1.26-0.14c-0.56,0.14-0.84,0.28-1.12,0.7s-0.28,0.98-0.28,1.68l-2.52,0.28c-0.14-1.4,0.14-2.52,0.84-3.23
		c0.7-0.7,1.54-1.26,2.81-1.4c1.26-0.28,2.38-0.14,3.23,0.42c0.84,0.56,1.4,1.26,1.54,2.38c0.14,0.56,0.14,1.12,0,1.68
		c-0.14,0.56-0.28,1.12-0.7,1.82c-0.28,0.42-0.7,1.12-1.26,1.96c-0.7,0.84-0.98,1.4-1.26,1.68c-0.14,0.28-0.28,0.56-0.42,0.84
		L140.13,393.17z"/>
	<path id="XMLID_126_" class="st12" d="M143.92,381.38c1.26-0.28,2.38,0,3.23,0.7c0.98,0.84,1.82,2.52,2.24,5.05
		c0.42,2.38,0.42,4.35-0.28,5.47c-0.56,0.98-1.4,1.68-2.67,1.96c-1.26,0.28-2.38,0-3.37-0.84s-1.68-2.52-2.24-4.91
		c-0.42-2.38-0.42-4.21,0.28-5.47C141.68,382.23,142.66,381.67,143.92,381.38z M144.34,383.35c-0.28,0-0.56,0.14-0.7,0.42
		c-0.14,0.28-0.28,0.56-0.28,1.12c0,0.7,0.14,1.82,0.42,3.23c0.28,1.54,0.56,2.52,0.84,3.09c0.28,0.56,0.56,0.84,0.84,0.98
		c0.28,0.14,0.56,0.14,0.84,0.14c0.28,0,0.56-0.14,0.7-0.42c0.14-0.28,0.28-0.56,0.28-1.12c0-0.7-0.14-1.82-0.42-3.23
		c-0.28-1.54-0.56-2.52-0.84-3.09s-0.56-0.84-0.84-0.98C144.9,383.35,144.62,383.35,144.34,383.35z"/>
	<path id="XMLID_129_" class="st12" d="M153.88,379.42c1.26-0.28,2.38,0,3.23,0.7c0.98,0.84,1.82,2.52,2.24,5.05
		c0.42,2.38,0.42,4.35-0.28,5.47c-0.56,0.98-1.4,1.68-2.67,1.96c-1.26,0.28-2.38,0-3.37-0.84c-0.98-0.84-1.68-2.52-2.24-4.91
		c-0.42-2.38-0.42-4.21,0.28-5.47C151.78,380.26,152.62,379.56,153.88,379.42z M154.3,381.38c-0.28,0-0.56,0.14-0.7,0.42
		c-0.14,0.28-0.28,0.56-0.28,1.12c0,0.7,0.14,1.82,0.42,3.23c0.28,1.54,0.56,2.52,0.84,3.09c0.28,0.56,0.56,0.84,0.84,0.98
		c0.28,0.14,0.56,0.14,0.84,0.14c0.28,0,0.56-0.14,0.7-0.42s0.28-0.56,0.28-1.12c0-0.7-0.14-1.82-0.42-3.23
		c-0.28-1.54-0.56-2.52-0.84-3.09c-0.28-0.56-0.56-0.84-0.84-0.98C154.86,381.38,154.58,381.38,154.3,381.38z"/>
	<path id="XMLID_130_" class="st12" d="M161.6,387.84l2.38-0.7c0.14,0.56,0.56,0.98,0.84,1.26c0.42,0.28,0.84,0.28,1.26,0.28
		c0.56-0.14,0.84-0.42,1.12-0.84c0.28-0.42,0.28-0.98,0.28-1.68c-0.14-0.56-0.42-1.12-0.84-1.4c-0.42-0.28-0.84-0.42-1.4-0.28
		c-0.28,0-0.7,0.14-1.12,0.42l-0.14-2.1c0.7-0.14,1.12-0.42,1.4-0.7c0.28-0.42,0.42-0.84,0.28-1.4c-0.14-0.42-0.28-0.7-0.56-0.98
		c-0.28-0.14-0.7-0.28-1.12-0.14c-0.42,0.14-0.7,0.28-0.98,0.7c-0.28,0.42-0.28,0.84-0.28,1.4h-2.38c0-0.84,0.14-1.54,0.28-1.96
		c0.28-0.56,0.56-0.98,1.12-1.4s1.12-0.7,1.82-0.84c1.26-0.28,2.24,0,3.23,0.56c0.7,0.56,1.12,1.12,1.4,1.96
		c0.28,1.12-0.28,2.1-1.26,3.09c0.84,0,1.4,0.28,1.96,0.7c0.56,0.42,0.84,1.12,1.12,1.82c0.28,1.12,0,2.24-0.7,3.09
		c-0.7,0.98-1.68,1.54-2.81,1.82c-1.12,0.28-2.24,0.14-3.09-0.42C162.58,389.66,162.02,388.82,161.6,387.84z"/>
	<polygon id="XMLID_131_" class="st12" points="39.14,367.22 41.52,371.85 46.57,372.55 42.92,376.19 43.77,381.24 39.14,378.86 
		34.65,381.24 35.49,376.19 31.84,372.55 36.89,371.85 	"/>
	<polygon id="XMLID_132_" class="st12" points="199.33,367.22 201.57,371.85 206.76,372.55 202.98,376.19 203.96,381.24 
		199.33,378.86 194.84,381.24 195.68,376.19 192.04,372.55 197.08,371.85 	"/>
</g>
</svg>
